<svg id="Layer_1" data-name="Layer 1" xmlns="http://www.w3.org/2000/svg" viewBox="0 0 404.43 398.3"><defs><style>.cls-1{fill:#090909;}</style></defs><title>001-people</title><path class="cls-1" d="M187.55,78.77h26.08c-4.4-25.4,9.81-37,29-49.9C270.71,10,296.33,9,325.22,24c27.59,14.28,38,38.51,26.31,67.22-2.77,6.84-3.55,9.95,4.14,14.54,13.67,8.17,11.5,25.19-3.61,31.56-5.1,2.15-7.83,4-9.58,9.51-3.55,11.13-10.69,20.06-19.89,27.49-10.66,8.6-9.1,18.86,3.33,24.17,13.74,5.86,27.48,11.72,41.32,17.35,14.07,5.74,21.08,15.94,21,31.2-.11,23.49-.36,47,.14,70.46.2,9.53-2.62,13.28-12.69,13.35-11.7.08-27.38-5.84-34.05,2.71-5.61,7.17-2.22,22.15-1.19,33.53,1.24,13.69-3.17,17.93-17.37,17.81-81-.69-161.92-.56-242.88-.1C68.13,384.83,63,382,63.88,369c.89-12.29,4-28.1-2.06-36.14-5.71-7.54-22.38-2-34.2-2.15C19.39,330.63,15.91,328,16,319.41c.35-25,0-50,.21-75,.11-13.37,7-22.62,19.08-27.88,14.15-6.18,28.48-11.93,42.68-18,13.4-5.7,14.66-15.47,3-25-8.77-7.13-15.36-15.84-19-26.36-1.78-5.08-3.75-7.65-9.2-9.86-16.6-6.71-17.66-23-2.14-32.93,5.2-3.34,5-5.06,2.86-10-15.37-35.69-12-41.91,21.36-65.19,24.53-17.13,47.86-21.09,75.53-8.6C176,32.32,191.13,48.84,187.55,78.77Zm75.32,88.7c12.47,1.31,22.61,4.93,23,18.07.4,12.8-7.57,18.76-20,19-3.42.06-5.41,1.43-6.39,4.89-3.81,13.46-12,23.64-23,32.24-8.48,6.61-5.67,17.55,4.71,20.51q36.63,10.45,73.37,20.48c13.71,3.77,23.93,11.78,25,26.29.68,9.48,4.66,10.25,11.93,9.6a56.63,56.63,0,0,1,13.46,0c9.42,1.43,11.81-2.26,11.44-11.45-.76-18.94-.7-38-.06-56.91.43-13-5.3-20.35-17-24.82C345.37,220.07,331.7,214,318,208.09c-6.06-2.61-14.91-3-13.72-12.81,1.22-10-5.33-21.94,8.27-29.19C323,160.5,329.3,150.61,332.23,139c1.74-6.9,2.75-14,12.83-12.73,3.84.49,7-1.81,6.67-6.16s-3.65-5.62-7.48-5.52c-12.14.31-11-7.76-9.18-15.34,1.28-5.25,4.37-10,6.25-15.17,4.54-12.45,4-24.49-3.91-35.59-16-22.47-56.62-30-79.5-14.55-6.19,4.17-12.1,8.59-19.07,11.61-9.71,4.21-14.06,12.62-13.92,22.84S229.56,86.2,240,89.93c16.19,5.75,26.58,17.47,30.86,34C274.71,138.68,270.75,152.58,262.87,167.47Zm-122.39.1c-2.74-5.87-5.34-11.21-7.74-16.64-9.43-21.33-2.27-41.15,18.49-51.42a83.26,83.26,0,0,0,9.21-4.86c20.35-13.48,21.49-41.28.68-54.13C136,25,112.92,14.28,82.87,39c-3,2.48-6.9,3.9-10.44,5.72-14.56,7.49-19.2,19.7-12.8,35,2.89,6.88,7.41,13.17,9.64,20.21,2.15,6.8,2.93,14.59-8.3,14.65-4.29,0-8.52.83-8.31,6.19s4.59,6,8.78,5.68c7.67-.56,8.63,4.7,10,10.35,3,12.66,9.46,23.43,20.94,29.78C105.76,174,98.73,186,100,196c1.14,8.92-7.33,9.47-12.92,11.91-13.68,6-27.35,12.08-41.37,17.22C33.27,229.7,27.34,237.39,28.06,251c.73,14,.16,28,.16,42,0,26.7,0,26.57,27,25.59,5.47-.2,8.87-.05,9.26-7.52.84-16.1,11.14-24.58,26.11-28.59,23.58-6.32,47.11-12.81,70.54-19.68,4.1-1.2,10.87.35,11-7.44.1-6,.32-11.23-6.09-15.36-10.34-6.67-16.83-16.9-20.73-28.55-1.15-3.43-1.62-6.88-6.32-6.89-12.35,0-20.62-5.58-20.56-18.47C118.53,172.88,128.41,168.91,140.48,167.57ZM76.23,339v12c0,21.49,0,20.9,22.11,21.67,10.67.37,15.68-1.63,14-13.52-1.1-7.84-.57-16,0-24,.26-4.05-3.41-10.51,5.54-10.88s6.16,5.87,6.31,10.2c.28,8.49.61,17-.06,25.48-.74,9.11,1.22,12.87,11.77,12.71,44.48-.68,89-.47,133.47-.11,8,.06,11.77-1.42,11-10.42-.81-9.43-.34-19-.11-28.47.1-3.93-2.13-9.2,5.62-9.44,7.37-.24,6.4,4.28,6.39,8.74,0,5,0,10,0,15,0,25,0,24.61,25.11,24.62,8.06,0,11.48-1.49,11-10.45-.77-15-.52-30-.12-45,.35-13.15-5.66-20-18.32-23.21-21.26-5.33-42.55-10.85-63.29-17.88-13.46-4.56-23.77-3.93-32.1,8.46-8.6,12.78-17.2,10.89-25.29-.63-7.6-10.82-16.6-13.1-29.38-8.21-14.37,5.49-29.66,8.58-44.58,12.58C72.44,299.82,76.19,296.35,76.23,339ZM250.06,183.59c.4-7,.29-14.67-3.84-22.14-3.09-5.57-5.33-6.88-11.12-3.2-21.87,13.89-44.16,13.9-66-.11-6-3.84-8.09-1.87-11,3.51-12.9,23.92-2,59.95,21.95,73.14C211.94,252.35,254.55,227,250.06,183.59ZM255.19,152c8.12-18,5.73-34.3-7.94-44-19.47-13.75-48.4-26.33-67.81-9.68,2.17,1.26,4.36,2.4,6.41,3.75,2.48,1.64,5.35,3.06,7.13,5.31,2.69,3.38,9.86,5.76,4.78,11.84-5.52,6.61-8.75.79-12.78-2.8-12-10.74-27.46-10.46-37.43.21-9.43,10.1-8.83,23.49,2.38,35.81,4.15-16.33,11.55-15.14,23.15-6.28,18.33,14,38.7,14.34,56.84.91C241,139,249.11,134.75,255.19,152Zm-64.28,99.5c-7.66-3.58-6.8,2.07-6.66,6.51.27,8.14,8.16,10.72,12.14,16.17s7.45,5.24,11.71.09c5.5-6.64,15.14-11.1,11.58-22.17-1.06-3.32-4.1-1.09-6.34-.66A64.49,64.49,0,0,1,190.91,251.51Z"/></svg>